<?xml version="1.0" encoding="UTF-8" standalone="no"?>
<!-- Created with Inkscape (http://www.inkscape.org/) -->

<svg
   xmlns:dc="http://purl.org/dc/elements/1.1/"
   xmlns:cc="http://creativecommons.org/ns#"
   xmlns:rdf="http://www.w3.org/1999/02/22-rdf-syntax-ns#"
   xmlns:svg="http://www.w3.org/2000/svg"
   xmlns="http://www.w3.org/2000/svg"
   xmlns:xlink="http://www.w3.org/1999/xlink"
   xmlns:sodipodi="http://sodipodi.sourceforge.net/DTD/sodipodi-0.dtd"
   xmlns:inkscape="http://www.inkscape.org/namespaces/inkscape"
   sodipodi:docname="Morph Ball - Beveled - Filled.svg"
   inkscape:version="0.48.0 r9654"
   version="1.1"
   id="svg2"
   height="1000"
   width="3200">
  <sodipodi:namedview
     id="base"
     pagecolor="#ffffff"
     bordercolor="#666666"
     borderopacity="1.0"
     inkscape:pageopacity="0.0"
     inkscape:pageshadow="2"
     inkscape:zoom="0.2884375"
     inkscape:cx="1600"
     inkscape:cy="500"
     inkscape:document-units="px"
     inkscape:current-layer="layer2"
     showgrid="true"
     inkscape:snap-global="true"
     inkscape:window-width="1400"
     inkscape:window-height="975"
     inkscape:window-x="-9"
     inkscape:window-y="-9"
     inkscape:window-maximized="1">
    <inkscape:grid
       spacingy="20px"
       spacingx="20px"
       snapvisiblegridlinesonly="true"
       enabled="true"
       visible="true"
       empspacing="5"
       id="grid3789"
       type="xygrid" />
  </sodipodi:namedview>
  <defs
     id="defs4">
    <inkscape:path-effect
       effect="rough_hatches"
       id="path-effect3475"
       is_visible="true"
       direction="1730.1568,337.375 , 28.904516,0"
       dist_rdm="0;1"
       growth="0"
       do_bend="true"
       bender="1730.1568,342.375 , 5,0"
       bottom_edge_variation="0;1"
       top_edge_variation="0;1"
       bottom_tgt_variation="0;1"
       top_tgt_variation="0;1"
       scale_bf="2"
       scale_bb="2"
       scale_tf="2"
       scale_tb="2"
       top_smth_variation="0;1"
       bottom_smth_variation="0;1"
       fat_output="false"
       stroke_width_top="1"
       stroke_width_bottom="1"
       front_thickness="1"
       back_thickness="0.25" />
    <inkscape:path-effect
       effect="rough_hatches"
       id="path-effect3473"
       is_visible="true"
       direction="1781.4856,207.375 , 29.67278,0"
       dist_rdm="0;1"
       growth="0"
       do_bend="true"
       bender="1781.4856,212.375 , 5,0"
       bottom_edge_variation="0;1"
       top_edge_variation="0;1"
       bottom_tgt_variation="0;1"
       top_tgt_variation="0;1"
       scale_bf="2"
       scale_bb="2"
       scale_tf="2"
       scale_tb="2"
       top_smth_variation="0;1"
       bottom_smth_variation="0;1"
       fat_output="false"
       stroke_width_top="1"
       stroke_width_bottom="1"
       front_thickness="1"
       back_thickness="0.25" />
    <inkscape:path-effect
       back_thickness="0.25"
       front_thickness="1"
       stroke_width_bottom="1"
       stroke_width_top="1"
       fat_output="false"
       bottom_smth_variation="0;1"
       top_smth_variation="0;1"
       scale_tb="2"
       scale_tf="2"
       scale_bb="2"
       scale_bf="2"
       top_tgt_variation="0;1"
       bottom_tgt_variation="0;1"
       top_edge_variation="0;1"
       bottom_edge_variation="0;1"
       bender="1701.5,270.01282 , 5,0"
       do_bend="true"
       growth="0"
       dist_rdm="0;1"
       direction="1701.5,265.01282 , 115.37738,-5.6843419e-014"
       is_visible="true"
       id="path-effect5472"
       effect="rough_hatches" />
    <inkscape:path-effect
       back_thickness="0.25"
       front_thickness="1"
       stroke_width_bottom="1"
       stroke_width_top="1"
       fat_output="false"
       bottom_smth_variation="0;1"
       top_smth_variation="0;1"
       scale_tb="2"
       scale_tf="2"
       scale_bb="2"
       scale_bf="2"
       top_tgt_variation="0;1"
       bottom_tgt_variation="0;1"
       top_edge_variation="0;1"
       bottom_edge_variation="0;1"
       bender="1710,140.01282 , 5,0"
       do_bend="true"
       growth="0"
       dist_rdm="0;1"
       direction="1710,135.01282 , 97.583892,2.8421709e-014"
       is_visible="true"
       id="path-effect5470"
       effect="rough_hatches" />
    <inkscape:path-effect
       fuse_tolerance="0"
       vertical_pattern="false"
       prop_units="false"
       tang_offset="0"
       normal_offset="0"
       spacing="0"
       scale_y_rel="false"
       prop_scale="1"
       copytype="single_stretched"
       pattern="M 0,5 C 0,2.24 2.24,0 5,0 7.76,0 10,2.24 10,5 10,7.76 7.76,10 5,10 2.24,10 0,7.76 0,5 z"
       is_visible="true"
       id="path-effect3001"
       effect="skeletal" />
    <inkscape:path-effect
       fuse_tolerance="0"
       vertical_pattern="false"
       prop_units="false"
       tang_offset="0"
       normal_offset="0"
       spacing="0"
       scale_y_rel="false"
       prop_scale="1"
       copytype="single_stretched"
       pattern="M 0,5 C 0,2.24 2.24,0 5,0 7.76,0 10,2.24 10,5 10,7.76 7.76,10 5,10 2.24,10 0,7.76 0,5 z"
       is_visible="true"
       id="path-effect2997"
       effect="skeletal" />
    <inkscape:path-effect
       fuse_tolerance="0"
       vertical_pattern="false"
       prop_units="false"
       tang_offset="0"
       normal_offset="0"
       spacing="0"
       scale_y_rel="false"
       prop_scale="1"
       copytype="single_stretched"
       pattern="M 0,0 0,10 10,5 z"
       is_visible="true"
       id="path-effect2993"
       effect="skeletal" />
    <inkscape:path-effect
       is_visible="true"
       id="path-effect2987"
       effect="spiro" />
  </defs>
  <metadata
     id="metadata7">
    <rdf:RDF>
      <cc:Work
         rdf:about="">
        <dc:format>image/svg+xml</dc:format>
        <dc:type
           rdf:resource="http://purl.org/dc/dcmitype/StillImage" />
        <dc:title />
      </cc:Work>
    </rdf:RDF>
  </metadata>
  <g
     transform="translate(0,-52.362183)"
     id="layer1"
     inkscape:groupmode="layer"
     inkscape:label="1 - Outlines"
     style="display:inline">
    <g
       inkscape:tile-y0="-376.66998"
       inkscape:tile-x0="1443.83"
       inkscape:tile-h="1253.34"
       inkscape:tile-w="500"
       inkscape:tile-cy="249.75"
       inkscape:tile-cx="1693.58"
       transform="translate(-3.4179687e-5,-4.4e-5)"
       id="g5714">
      <path
         style="fill:none;stroke:#000000;stroke-width:1px;stroke-linecap:butt;stroke-linejoin:miter;stroke-opacity:1"
         d="m 1180,492.36223 900,5e-5 240,-240.00005 0,-60 -540,0 -200,199.99995 -380,0 -60,60.00005 z"
         id="path3015"
         inkscape:connector-curvature="0"
         sodipodi:nodetypes="ccccccccc" />
      <path
         style="fill:none;stroke:#000000;stroke-width:1px;stroke-linecap:butt;stroke-linejoin:miter;stroke-opacity:1"
         d="m 1240,352.36218 320,0 200,-199.99995 560,0 0,-40 -40,-40.000003 -860,0 -80,80.000003 0,100 z"
         id="path3019"
         inkscape:connector-curvature="0"
         sodipodi:nodetypes="cccccccccc" />
    </g>
    <use
       height="1000"
       width="3200"
       id="use5779"
       transform="matrix(1,0,0,-1,-4.1796875e-6,1104.2243)"
       xlink:href="#g5714"
       inkscape:tiled-clone-of="#g5714"
       y="0"
       x="0" />
    <use
       height="1000"
       width="3200"
       transform="translate(1066.66,0)"
       id="use2995"
       xlink:href="#g5714"
       y="0"
       x="0" />
    <use
       height="1000"
       width="3200"
       transform="translate(1066.66,0)"
       id="use2997"
       xlink:href="#use5779"
       y="0"
       x="0" />
    <use
       height="1000"
       width="3200"
       transform="translate(-1066.66,0)"
       id="use2999"
       xlink:href="#g5714"
       y="0"
       x="0" />
    <use
       height="1000"
       width="3200"
       transform="translate(-1066.66,0)"
       id="use3001"
       xlink:href="#use5779"
       y="0"
       x="0" />
  </g>
  <g
     inkscape:label="2 - Fill"
     id="layer2"
     inkscape:groupmode="layer"
     style="display:inline">
    <g
       id="g3061"
       transform="translate(-3.4179687e-5,-52.362227)"
       inkscape:tile-cx="1693.58"
       inkscape:tile-cy="249.75"
       inkscape:tile-w="500"
       inkscape:tile-h="1253.34"
       inkscape:tile-x0="1443.83"
       inkscape:tile-y0="-376.66998">
      <path
         inkscape:original-d="m 1582.125,394.5 c -5.9398,2.14713 -13.5679,0.21828 -20.125,0.875 -120.25,0 -240.5,0 -360.75,0 -19,19 -38,38 -57,57 12.3333,12.33333 24.6667,24.66667 37,37 299.1667,0 598.3333,0 897.5,0 79.4167,-79.41667 158.8333,-158.83333 238.25,-238.25 0,-18.58333 0,-37.16667 0,-55.75 -178.5833,0 -357.1667,0 -535.75,0 -66.375,66.375 -132.75,132.75 -199.125,199.125 z"
         inkscape:path-effect="#path-effect3475"
         inkscape:connector-curvature="0"
         id="path3067"
         d="m 2314.028,195.375 c 0,0 0.9579,13.76725 1.1569,28.24997 0.199,14.48272 -0.3653,29.68092 -3.2272,32.54283 -2.8619,2.8619 -3.0077,-12.3363 -3.2184,-28.24997 -0.2107,-15.91368 -0.4922,-32.54283 -3.3826,-32.54283 -2.8905,0 -2.6063,16.62915 -2.3795,33.97472 0.2269,17.34557 0.391,35.40755 -2.4747,38.27322 -2.8656,2.86567 -3.0148,-15.19632 -3.251,-33.97472 -0.2362,-18.7784 -0.5662,-38.27322 -3.4566,-38.27322 -2.8905,0 -2.5573,19.49482 -2.3064,39.707 0.2509,20.21218 0.4133,41.14172 -2.4562,44.01116 -2.8694,2.86944 -3.0144,-18.0601 -3.2724,-39.707 -0.2579,-21.6469 -0.6364,-44.01116 -3.5268,-44.01116 -2.8905,0 -2.5083,22.36426 -2.2371,45.44683 0.2712,23.08257 0.4242,46.88345 -2.449,49.75668 -2.8733,2.87323 -3.0065,-20.92764 -3.2823,-45.44683 -0.2759,-24.51919 -0.703,-49.75668 -3.5935,-49.75668 -2.8904,0 -2.4591,25.23749 -2.1714,51.19425 0.2877,25.95675 0.4237,52.63276 -2.4534,55.5098 -2.877,2.87704 -2.9907,-23.79897 -3.2807,-51.19424 -0.29,-27.39528 -0.7658,-55.50981 -3.6563,-55.50981 -2.8904,0 -2.4099,28.11453 -2.1095,56.94928 0.3004,28.83475 0.4116,58.38971 -2.4693,61.27057 -2.8808,2.88086 -2.9674,-26.67411 -3.2677,-56.94928 -0.1501,-15.13759 -0.348,-30.45523 -0.8797,-41.98848 -0.5317,-11.53324 -1.3903,-19.28209 -2.8356,-19.28209 -2.8904,0 -2.3607,30.99539 -2.0514,62.71195 0.1547,15.85829 0.2612,31.89686 -0.043,44.33145 -0.3038,12.4346 -1.0116,21.2652 -2.454,22.70755 -1.4423,1.44235 -2.1735,-5.94591 -2.5831,-17.83962 -0.4096,-11.89371 -0.5066,-28.29288 -0.66,-44.87233 -0.1533,-16.57946 -0.3635,-33.33921 -0.9086,-45.95409 -0.545,-12.61489 -1.4167,-21.08491 -2.862,-21.08491 -1.4452,0 -2.0184,8.47002 -2.1936,21.26532 -0.1752,12.7953 0.039,29.91588 0.1966,47.21699 0.1571,17.30111 0.2565,34.78275 -0.057,48.30019 -0.3141,13.51743 -1.034,23.07066 -2.4783,24.51493 -1.4442,1.44427 -2.165,-6.66468 -2.5644,-19.64051 -0.3993,-12.97583 -0.4878,-30.81855 -0.6425,-48.84179 -0.1547,-18.02325 -0.376,-36.22703 -0.934,-49.925 -0.5579,-13.69797 -1.4429,-22.89013 -2.8881,-22.89013 -1.4452,0 -2.0052,9.19216 -2.1676,23.07078 -0.1623,13.87863 0.063,32.44372 0.2211,51.18958 0.1578,18.74587 0.2473,37.67251 -0.079,52.27424 -0.3267,14.60173 -1.0607,24.87854 -2.5069,26.32475 -1.4462,1.4462 -2.1545,-7.3844 -2.5412,-21.4438 -0.3866,-14.0594 -0.4638,-33.3476 -0.6179,-52.81657 -0.154,-19.46897 -0.3854,-39.11871 -0.9559,-53.90122 -0.5705,-14.7825 -1.4687,-24.69776 -2.9139,-24.69776 -1.4452,0 -1.9919,9.91526 -2.1418,24.87866 -0.1499,14.9634 0.086,34.97494 0.2421,55.1675 0.1564,20.19256 0.2332,40.56613 -0.1087,56.2536 -0.3419,15.68748 -1.0919,26.68885 -2.5401,28.137 -1.4481,1.44814 -2.142,-8.10508 -2.5135,-23.2495 -0.3715,-15.14442 -0.4346,-35.88003 -0.5861,-56.79666 -0.1515,-20.91663 -0.3919,-42.01428 -0.9744,-57.88277 -0.5825,-15.8685 -1.4941,-26.50783 -2.9393,-26.50783 -1.4452,0 -1.9785,10.63933 -2.1164,26.68897 -0.138,16.04963 0.1065,37.50956 0.2596,59.15075 0.1531,21.64119 0.2145,43.46365 -0.145,60.23833 -0.3595,16.77468 -1.1277,28.50158 -2.5778,29.95168 -1.4501,1.45009 -2.1275,-8.82672 -2.4814,-25.05761 -0.3538,-16.23089 -0.4,-38.41587 -0.547,-60.78211 -0.147,-22.36624 -0.3953,-44.91374 -0.9894,-61.86969 -0.5941,-16.95594 -1.5192,-28.32032 -2.9644,-28.32032 -1.4452,0 -1.965,11.36438 -2.0914,28.50171 -0.1264,17.13732 0.1258,40.04759 0.2737,63.13937 0.1479,23.09178 0.191,46.36506 -0.1886,64.22841 -0.3796,17.86336 -1.1681,30.31678 -2.6201,31.76883 -1.4521,1.45205 -2.1109,-9.54931 -2.4446,-26.86815 -0.3337,-17.31883 -0.3603,-40.95513 -0.5008,-64.77293 -0.1406,-23.8178 -0.3956,-47.81711 -1.0009,-65.86197 -0.6053,-18.04486 -1.5439,-30.13527 -2.9891,-30.13527 -1.4452,0 -1.9515,12.09041 -2.0667,30.3169 -0.1153,18.22648 0.1435,42.58905 0.2842,67.13337 0.1407,24.54432 0.1628,49.2704 -0.2394,68.22389 -0.4023,18.9535 -1.213,32.13442 -2.667,33.58844 -1.454,1.45402 -2.0922,-10.27289 -2.4033,-28.68113 -0.3111,-18.40824 -0.3152,-43.49781 -0.4473,-68.76914 -0.1321,-25.27133 -0.3928,-50.72441 -1.0088,-69.85966 -0.616,-19.13525 -1.5683,-31.95267 -3.0135,-31.95267 -1.4452,0 -1.9378,12.81742 -2.0424,32.13454 -0.1046,19.31713 0.1598,45.13396 0.2913,71.13279 0.1315,25.99883 0.1298,52.17966 -0.2976,72.22478 -0.4274,20.04512 -1.2624,33.95453 -2.7184,35.41052 -1.456,1.45599 -2.0716,-10.99743 -2.3575,-30.49656 -0.286,-19.49912 -0.2647,-46.04395 -0.3864,-72.77077 -0.1217,-26.72683 -0.387,-53.63565 -1.0133,-73.86277 -0.6263,-20.22712 -1.5923,-33.77253 -3.0375,-33.77253 -1.4452,0 -1.924,13.54541 -2.0184,33.95465 -0.094,20.40924 0.1744,47.68231 0.2948,75.13763 0.1204,27.45531 0.092,55.09287 -0.3631,76.2311 -0.4551,21.13823 -1.3165,35.77712 -2.7745,37.23509 -1.4579,1.45797 -2.0488,-11.72295 -2.307,-32.31444 -0.2583,-20.59148 -0.2089,-48.59354 -0.3182,-76.77784 -0.1094,-28.1843 -0.3781,-56.55085 -1.0142,-77.87132 -0.6361,-21.32047 -1.616,-35.59487 -3.0612,-35.59487 -1.4452,0 -1.9101,14.2744 -1.9948,35.77724 -0.085,21.50284 0.1875,50.23413 0.2948,79.14791 0.1073,28.91379 0.049,58.01006 -0.436,80.24289 -0.4852,22.23282 -1.3751,37.60218 -2.8351,39.06214 -1.4599,1.45996 -2.0239,-12.44944 -2.252,-34.13478 -0.2281,-21.68534 -0.1477,-51.14661 -0.2426,-80.79037 -0.095,-29.64376 -0.3661,-59.47002 -1.0116,-81.88534 -0.6455,-22.41531 -1.6393,-37.41969 -3.0845,-37.41969 -1.4453,0 -1.8962,15.00438 -1.9715,37.60231 -0.075,22.59794 0.199,52.78944 0.2912,83.16368 0.092,30.37424 0,60.93123 -0.5163,84.26014 -0.5179,23.32891 -1.4384,39.42976 -2.9003,40.89171 -1.462,1.46196 -1.9971,-13.17693 -2.1925,-35.95761 -0.1953,-22.78068 -0.081,-53.70315 -0.1596,-84.80837 -0.079,-31.10522 -0.3509,-62.39319 -1.0053,-85.90485 -0.6544,-23.51166 -1.6623,-39.24701 -3.1075,-39.24701 -1.4453,0 -1.8821,15.73535 -1.9485,39.42988 -0.066,23.69453 0.2089,55.34824 0.284,87.18493 0.075,31.8367 -0.051,63.8564 -0.604,88.28291 -0.5532,24.42651 -1.5063,41.25983 -2.9703,42.72379 -1.464,1.46396 -1.9681,-13.9054 -2.1282,-37.78292 -0.1601,-23.87753 -0.01,-56.26321 -0.069,-88.83189 -0.06,-32.56868 -0.3326,-65.32036 -0.9955,-89.92986 -0.6629,-24.60951 -1.6849,-41.07684 -3.1301,-41.07684 -1.4453,0 -1.868,16.46733 -1.926,41.25996 -0.058,24.79263 0.2173,57.91054 0.2733,91.2117 0.056,33.30117 -0.1081,66.78558 -0.6991,92.31119 -0.591,25.52561 -1.579,43.09243 -3.045,44.5584 -1.4659,1.46598 -1.937,-14.63486 -2.0592,-39.61073 -0.1223,-24.97588 0.069,-58.82678 0.029,-92.86093 -0.04,-34.03415 -0.3113,-68.25155 -0.9822,-93.96041 -0.6709,-25.70886 -1.7071,-42.90918 -3.1523,-42.90918 -1.4453,0 -1.8537,17.20032 -1.9037,43.09255 -0.05,25.89224 0.224,60.47638 0.2589,95.24402 0.035,34.76765 -0.1703,69.71879 -0.8017,96.34502 -0.6314,26.62623 -1.6563,44.92755 -3.1243,46.39555 -1.468,1.46799 -1.9039,-15.36533 -1.9857,-41.44106 -0.082,-26.07573 0.1515,-61.39388 0.134,-96.89552 -0.017,-35.50164 -0.2866,-71.18678 -0.9651,-97.99651 -0.6784,-26.80973 -1.729,-44.74405 -3.1743,-44.74405 -1.4452,0 -1.8382,17.98961 -1.8805,45.03826 -0.042,27.04864 0.2289,63.15633 0.2397,99.39247 0.011,36.23615 -0.2394,72.60076 -0.9119,100.16326 -0.6725,27.5625 -1.731,46.32289 -3.1934,47.3506 -1.4625,1.0277 -1.8612,-16.70498 -1.9047,-43.88209 -0.044,-27.17711 0.2273,-63.79865 0.2295,-100.54865 0,-36.75 -0.2649,-73.62846 -0.9491,-101.31942 -0.6843,-27.69097 -1.7461,-46.19443 -3.1914,-46.19443 -1.4452,0 -1.8309,18.375 -1.8699,45.9375 -0.039,27.5625 0.2295,64.3125 0.2295,101.0625 0,36.75 -0.2686,73.5 -0.9521,101.0625 -0.6836,27.5625 -1.7431,45.9375 -3.1884,45.9375 -1.4452,0 -1.8309,-18.375 -1.8699,-45.9375 -0.039,-27.5625 0.2295,-64.3125 0.2295,-101.0625 0,-36.75 -0.2686,-73.5 -0.9521,-101.0625 -0.6836,-27.5625 -1.7431,-45.9375 -3.1884,-45.9375 -1.4452,0 -1.8309,18.375 -1.8699,45.9375 -0.039,27.5625 0.2295,64.3125 0.2295,101.0625 0,36.75 -0.2686,73.5 -0.9521,101.0625 -0.6836,27.5625 -1.7431,45.9375 -3.1884,45.9375 -1.4452,0 -1.8309,-18.375 -1.8699,-45.9375 -0.039,-27.5625 0.2295,-64.3125 0.2295,-101.0625 0,-36.75 -0.2686,-73.5 -0.9521,-101.0625 -0.6836,-27.5625 -1.7431,-45.9375 -3.1884,-45.9375 -1.4452,0 -1.8309,18.375 -1.8699,45.9375 -0.039,27.5625 0.2295,64.3125 0.2295,101.0625 0,36.75 -0.2686,73.5 -0.9522,101.0625 -0.6835,27.5625 -1.743,45.9375 -3.1883,45.9375 -1.4452,0 -1.8309,-18.375 -1.8699,-45.9375 -0.039,-27.5625 0.2295,-64.3125 0.2295,-101.0625 0,-36.75 -0.2686,-73.5 -0.9522,-101.0625 -0.6835,-27.5625 -1.7431,-45.9375 -3.1883,-45.9375 -1.4452,0 -1.8309,18.375 -1.8699,45.9375 -0.039,27.5625 0.2295,64.3125 0.2295,101.0625 0,36.75 -0.2686,73.5 -0.9522,101.0625 -0.6835,27.5625 -1.7431,45.9375 -3.1883,45.9375 -1.4452,0 -1.8309,-18.375 -1.8699,-45.9375 -0.039,-27.5625 0.2295,-64.3125 0.2295,-101.0625 0,-36.75 -0.2686,-73.5 -0.9522,-101.0625 -0.6835,-27.5625 -1.7431,-45.9375 -3.1883,-45.9375 -1.4452,0 -1.8309,18.375 -1.87,45.9375 -0.039,27.5625 0.2296,64.3125 0.2296,101.0625 0,36.75 -0.2686,73.5 -0.9522,101.0625 -0.6835,27.5625 -1.7431,45.9375 -3.1883,45.9375 -1.4452,0 -1.8309,-18.375 -1.87,-45.9375 -0.039,-27.5625 0.2296,-64.3125 0.2296,-101.0625 0,-36.75 -0.2686,-73.5 -0.9522,-101.0625 -0.6835,-27.5625 -1.7431,-45.9375 -3.1883,-45.9375 -1.4452,0 -1.8309,18.375 -1.87,45.9375 -0.039,27.5625 0.2296,64.3125 0.2296,101.0625 0,36.75 -0.2686,73.5 -0.9522,101.0625 -0.6835,27.5625 -1.7431,45.9375 -3.1883,45.9375 -1.4452,0 -1.8309,-18.375 -1.87,-45.9375 -0.039,-27.5625 0.2296,-64.3125 0.2296,-101.0625 0,-36.75 -0.2686,-73.5 -0.9522,-101.0625 -0.6835,-27.5625 -1.7431,-45.9375 -3.1883,-45.9375 -1.4452,0 -1.8309,18.375 -1.87,45.9375 -0.039,27.5625 0.2296,64.3125 0.2296,101.0625 0,36.75 -0.2686,73.5 -0.9522,101.0625 -0.6835,27.5625 -1.7431,45.9375 -3.1883,45.9375 -1.4452,0 -1.8309,-18.375 -1.87,-45.9375 -0.039,-27.5625 0.2295,-64.3125 0.2295,-101.0625 0,-36.75 -0.2685,-73.5 -0.9521,-101.0625 -0.6836,-27.5625 -1.7431,-45.9375 -3.1883,-45.9375 -1.4452,0 -1.8309,18.375 -1.87,45.9375 -0.039,27.5625 0.2295,64.3125 0.2295,101.0625 0,36.75 -0.2685,73.5 -0.9521,101.0625 -0.6836,27.5625 -1.7431,45.9375 -3.1883,45.9375 -1.4452,0 -1.8309,-18.375 -1.87,-45.9375 -0.039,-27.5625 0.2295,-64.3125 0.2295,-101.0625 0,-36.75 -0.2685,-73.5 -0.9521,-101.0625 -0.6836,-27.5625 -1.7431,-45.9375 -3.1883,-45.9375 -1.4452,0 -1.8309,18.375 -1.87,45.9375 -0.039,27.5625 0.2295,64.3125 0.2295,101.0625 0,36.75 -0.2685,73.5 -0.9521,101.0625 -0.6836,27.5625 -1.7431,45.9375 -3.1883,45.9375 -1.4452,0 -1.8309,-18.375 -1.87,-45.9375 -0.039,-27.5625 0.2295,-64.3125 0.2295,-101.0625 0,-36.75 -0.2685,-73.5 -0.9521,-101.0625 -0.6836,-27.5625 -1.7431,-45.9375 -3.1883,-45.9375 -1.4452,0 -1.8309,18.375 -1.87,45.9375 -0.039,27.5625 0.2295,64.3125 0.2295,101.0625 0,36.75 -0.2685,73.5 -0.9521,101.0625 -0.6836,27.5625 -1.7431,45.9375 -3.1883,45.9375 -1.4452,0 -1.8309,-18.375 -1.87,-45.9375 -0.039,-27.5625 0.2295,-64.3125 0.2295,-101.0625 0,-36.75 -0.2685,-73.5 -0.9521,-101.0625 -0.6836,-27.5625 -1.7431,-45.9375 -3.1883,-45.9375 -1.4452,0 -1.8309,18.375 -1.87,45.9375 -0.039,27.5625 0.2295,64.3125 0.2295,101.0625 0,36.75 -0.2685,73.5 -0.9521,101.0625 -0.6836,27.5625 -1.7431,45.9375 -3.1883,45.9375 -1.4453,0 -1.831,-18.375 -1.87,-45.9375 -0.039,-27.5625 0.2295,-64.3125 0.2295,-101.0625 0,-36.75 -0.2685,-73.5 -0.9521,-101.0625 -0.6836,-27.5625 -1.7431,-45.9375 -3.1883,-45.9375 -1.4453,0 -1.831,18.375 -1.87,45.9375 -0.039,27.5625 0.2295,64.3125 0.2295,101.0625 0,36.75 -0.2685,73.5 -0.9521,101.0625 -0.6836,27.5625 -1.7431,45.9375 -3.1883,45.9375 -1.4453,0 -1.831,-18.375 -1.87,-45.9375 -0.039,-27.5625 0.2295,-64.3125 0.2295,-101.0625 0,-36.75 -0.2685,-73.5 -0.9521,-101.0625 -0.6836,-27.5625 -1.7431,-45.9375 -3.1883,-45.9375 -1.4453,0 -1.831,18.375 -1.87,45.9375 -0.039,27.5625 0.2295,64.3125 0.2295,101.0625 0,36.75 -0.2685,73.5 -0.9521,101.0625 -0.6836,27.5625 -1.7431,45.9375 -3.1883,45.9375 -1.4453,0 -1.831,-18.375 -1.87,-45.9375 -0.039,-27.5625 0.2295,-64.3125 0.2295,-101.0625 0,-36.75 -0.2685,-73.5 -0.9521,-101.0625 -0.6836,-27.5625 -1.7431,-45.9375 -3.1883,-45.9375 -1.4453,0 -1.831,18.375 -1.87,45.9375 -0.039,27.5625 0.2295,64.3125 0.2295,101.0625 0,36.75 -0.2685,73.5 -0.9521,101.0625 -0.6836,27.5625 -1.7431,45.9375 -3.1883,45.9375 -1.4453,0 -1.831,-18.375 -1.87,-45.9375 -0.039,-27.5625 0.2295,-64.3125 0.2295,-101.0625 0,-36.75 -0.2686,-73.5 -0.9521,-101.0625 -0.6836,-27.5625 -1.7431,-45.9375 -3.1883,-45.9375 -1.4453,0 -1.831,18.375 -1.87,45.9375 -0.039,27.5625 0.2295,64.3125 0.2295,101.0625 0,36.75 -0.2686,73.5 -0.9521,101.0625 -0.6836,27.5625 -1.7431,45.9375 -3.1884,45.9375 -1.4452,0 -1.8309,-18.375 -1.8699,-45.9375 -0.039,-27.5625 0.2295,-64.3125 0.2295,-101.0625 0,-36.75 -0.2686,-73.5 -0.9521,-101.0625 -0.6836,-27.5625 -1.7431,-45.9375 -3.1884,-45.9375 -1.4452,0 -1.8309,18.375 -1.8699,45.9375 -0.039,27.5625 0.2295,64.3125 0.2295,101.0625 0,36.75 -0.2686,73.5 -0.9521,101.0625 -0.6836,27.5625 -1.7431,45.9375 -3.1884,45.9375 -1.4452,0 -1.8309,-18.375 -1.8699,-45.9375 -0.039,-27.5625 0.2295,-64.3125 0.2295,-101.0625 0,-36.75 -0.2686,-73.5 -0.9521,-101.0625 -0.6836,-27.5625 -1.7431,-45.9375 -3.1884,-45.9375 -1.4452,0 -1.8309,18.375 -1.8699,45.9375 -0.039,27.5625 0.2295,64.3125 0.2295,101.0625 0,36.75 -0.2686,73.5 -0.9521,101.0625 -0.6836,27.5625 -1.7431,45.9375 -3.1884,45.9375 -1.4452,0 -1.8309,-18.375 -1.8699,-45.9375 -0.039,-27.5625 0.2295,-64.3125 0.2295,-101.0625 0,-36.75 -0.2686,-73.5 -0.9521,-101.0625 -0.6836,-27.5625 -1.7431,-45.9375 -3.1884,-45.9375 -1.4452,0 -1.8309,18.375 -1.8699,45.9375 -0.039,27.5625 0.2295,64.3125 0.2295,101.0625 0,36.75 -0.2686,73.5 -0.9521,101.0625 -0.6836,27.5625 -1.7431,45.9375 -3.1884,45.9375 -1.4452,0 -1.8309,-18.375 -1.8699,-45.9375 -0.039,-27.5625 0.2295,-64.3125 0.2295,-101.0625 0,-36.75 -0.2686,-73.5 -0.9522,-101.0625 -0.6835,-27.5625 -1.743,-45.9375 -3.1883,-45.9375 -1.4452,0 -1.8309,18.375 -1.8699,45.9375 -0.039,27.5625 0.2295,64.3125 0.2295,101.0625 0,36.75 -0.2686,73.5 -0.9522,101.0625 -0.6835,27.5625 -1.7431,45.9375 -3.1883,45.9375 -1.4452,0 -1.8309,-18.375 -1.8699,-45.9375 -0.039,-27.5625 0.2295,-64.3125 0.2295,-101.0625 0,-36.75 -0.2686,-73.5 -0.9522,-101.0625 -0.6835,-27.5625 -1.7431,-45.9375 -3.1883,-45.9375 -1.4452,0 -1.8309,18.375 -1.8699,45.9375 -0.039,27.5625 0.2295,64.3125 0.2295,101.0625 0,36.75 -0.2686,73.5 -0.9522,101.0625 -0.6835,27.5625 -1.7431,45.9375 -3.1883,45.9375 -1.4452,0 -1.8309,-18.375 -1.8699,-45.9375 -0.039,-27.5625 0.2295,-64.3125 0.2295,-101.0625 0,-36.75 -0.2686,-73.5 -0.9522,-101.0625 -0.6835,-27.5625 -1.7431,-45.9375 -3.1883,-45.9375 -1.4452,0 -1.8309,18.375 -1.87,45.9375 -0.039,27.5625 0.2296,64.3125 0.2296,101.0625 0,36.75 -0.2686,73.5 -0.9522,101.0625 -0.6835,27.5625 -1.7431,45.9375 -3.1883,45.9375 -1.4452,0 -1.8309,-18.375 -1.87,-45.9375 -0.039,-27.5625 0.2296,-64.3125 0.2296,-101.0625 0,-36.75 -0.2686,-73.5 -0.9522,-101.0625 -0.6835,-27.5625 -1.7431,-45.9375 -3.1883,-45.9375 -1.4452,0 -1.8309,18.375 -1.87,45.9375 -0.039,27.5625 0.2296,64.3125 0.2296,101.0625 0,36.75 -0.2686,73.5 -0.9522,101.0625 -0.6835,27.5625 -1.7431,45.9375 -3.1883,45.9375 -1.4452,0 -1.8309,-18.375 -1.87,-45.9375 -0.039,-27.5625 0.2296,-64.3125 0.2296,-101.0625 0,-36.75 -0.2686,-73.5 -0.9522,-101.0625 -0.6835,-27.5625 -1.7431,-45.9375 -3.1883,-45.9375 -1.4452,0 -1.8309,18.375 -1.87,45.9375 -0.039,27.5625 0.2295,64.3125 0.2295,101.0625 0,36.75 -0.2685,73.5 -0.9521,101.0625 -0.6836,27.5625 -1.7431,45.9375 -3.1883,45.9375 -1.4452,0 -1.8309,-18.375 -1.87,-45.9375 -0.039,-27.5625 0.2295,-64.3125 0.2295,-101.0625 0,-36.75 -0.2685,-73.5 -0.9521,-101.0625 -0.6836,-27.5625 -1.7431,-45.9375 -3.1883,-45.9375 -1.4452,0 -1.8309,18.375 -1.87,45.9375 -0.039,27.5625 0.2295,64.3125 0.2295,101.0625 0,36.75 -0.2685,73.5 -0.9521,101.0625 -0.6836,27.5625 -1.7431,45.9375 -3.1883,45.9375 -1.4452,0 -1.8309,-18.375 -1.87,-45.9375 -0.039,-27.5625 0.2295,-64.3125 0.2295,-101.0625 0,-36.75 -0.2685,-73.5 -0.9521,-101.0625 -0.6836,-27.5625 -1.7431,-45.9375 -3.1883,-45.9375 -1.4452,0 -1.8309,18.375 -1.87,45.9375 -0.039,27.5625 0.2295,64.3125 0.2295,101.0625 0,36.75 -0.2685,73.5 -0.9521,101.0625 -0.6836,27.5625 -1.7431,45.9375 -3.1883,45.9375 -1.4452,0 -1.8309,-18.375 -1.87,-45.9375 -0.039,-27.5625 0.2295,-64.3125 0.2295,-101.0625 0,-36.75 -0.2685,-73.5 -0.9521,-101.0625 -0.6836,-27.5625 -1.7431,-45.9375 -3.1883,-45.9375 -1.4452,0 -1.8309,18.375 -1.87,45.9375 -0.039,27.5625 0.2295,64.3125 0.2295,101.0625 0,36.75 -0.2685,73.5 -0.9521,101.0625 -0.6836,27.5625 -1.7431,45.9375 -3.1883,45.9375 -1.4452,0 -1.8336,-18.2549 -1.8745,-45.54835 -0.041,-27.29345 0.2269,-63.62546 0.2339,-99.77968 0.01,-36.15422 -0.2462,-72.13066 -0.9059,-98.71296 -0.6598,-26.58231 -1.6861,-43.77049 -3.1083,-42.3482 -1.4223,1.42229 -1.8255,20.03276 -1.8974,47.14842 -0.072,27.11567 0.1531,62.73653 0.1288,98.17961 -0.024,35.44308 -0.2975,70.70837 -0.9736,97.11289 -0.6761,26.40452 -1.7196,43.94827 -3.1648,43.94827 -1.4453,0 -1.8475,-17.54375 -1.8956,-43.77037 -0.048,-26.22662 0.2224,-61.13611 0.252,-95.86758 0.03,-34.73147 -0.181,-69.28492 -0.8004,-94.79948 -0.6194,-25.51455 -1.6106,-41.9902 -3.0347,-40.56606 -1.4242,1.42413 -1.8641,19.32392 -1.9763,45.37252 -0.1123,26.0486 0.072,60.24602 0.026,94.26543 -0.046,34.0194 -0.3206,67.86079 -0.9892,93.19732 -0.6686,25.33654 -1.6982,42.16822 -3.1434,42.16822 -1.4453,0 -1.8614,-16.83168 -1.9171,-41.99009 -0.056,-25.1584 0.2164,-58.64352 0.2667,-91.95039 0.05,-33.30687 -0.1203,-66.4355 -0.7017,-90.88091 -0.5814,-24.4454 -1.5393,-40.2076 -2.9653,-38.78161 -1.426,1.42599 -1.9007,18.61417 -2.051,43.59433 -0.1503,24.98015 -0.01,57.75228 -0.07,90.34615 -0.065,32.59388 -0.3408,65.00951 -1.0014,89.27667 -0.6606,24.26716 -1.6764,40.38585 -3.1216,40.38585 -1.4453,0 -1.8752,-16.11869 -1.9389,-40.20749 -0.064,-24.08879 0.2088,-56.14769 0.278,-88.02811 0.069,-31.88042 -0.064,-63.58235 -0.6099,-86.95722 -0.5457,-23.37487 -1.4723,-38.42268 -2.9002,-36.99483 -1.4278,1.42785 -1.9354,17.90351 -2.1214,41.81382 -0.186,23.91031 -0.077,55.25529 -0.1597,86.42178 -0.083,31.16649 -0.3581,62.15451 -1.0103,85.3509 -0.6522,23.19638 -1.6542,38.60115 -3.0994,38.60115 -1.4453,0 -1.889,-15.40477 -1.9611,-38.42256 -0.072,-23.01779 0.1997,-53.6486 0.2859,-84.10071 0.086,-30.4521 -0.013,-60.72549 -0.5249,-83.02842 -0.5124,-22.30293 -1.4096,-36.63541 -2.8393,-35.20569 -1.4298,1.42972 -1.9683,17.19191 -2.1877,40.03099 -0.2193,22.83907 -0.1432,52.75503 -0.2422,82.49228 -0.099,29.73724 -0.3724,59.29577 -1.0157,81.41999 -0.6434,22.12421 -1.6316,36.81412 -3.0769,36.81412 -1.4452,0 -1.9026,-14.68991 -1.9837,-36.63529 -0.081,-21.94539 0.1892,-51.14625 0.2905,-80.16817 0.1014,-29.02192 0.035,-57.86488 -0.4468,-79.09447 -0.4814,-21.22959 -1.3512,-34.84581 -2.7828,-33.41421 -1.4316,1.43159 -1.9992,16.4794 -2.2495,38.24583 -0.2504,21.76644 -0.2049,50.25151 -0.3178,78.55763 -0.113,28.30612 -0.3838,56.43329 -1.0178,77.48393 -0.634,21.05064 -1.6086,35.02475 -3.0539,35.02475 -1.4452,0 -1.9162,-13.97411 -2.0067,-34.84569 -0.091,-20.87157 0.177,-48.64061 0.2916,-76.23046 0.1147,-27.58985 0.077,-55.00052 -0.3757,-75.15536 -0.4527,-20.15483 -1.297,-33.05384 -2.7305,-31.62036 -1.4334,1.43347 -2.0282,15.76595 -2.3071,36.45834 -0.279,20.69239 -0.2615,47.74469 -0.3865,74.61781 -0.1251,26.87311 -0.3922,53.56704 -1.0164,73.54269 -0.6242,19.97566 -1.5852,33.23303 -3.0305,33.23303 -1.4452,0 -1.9298,-13.25737 -2.0302,-33.05372 -0.1003,-19.79635 0.1633,-46.13168 0.2894,-72.28758 0.1261,-26.15591 0.1151,-52.13239 -0.3114,-71.21106 -0.4266,-19.07867 -1.2472,-31.25952 -2.6826,-29.82415 -1.4354,1.43536 -2.0553,15.05158 -2.3605,34.66851 -0.3053,19.61693 -0.313,45.23457 -0.4482,70.67279 -0.1353,25.43823 -0.3976,50.69703 -1.0116,69.59627 -0.614,18.89925 -1.5614,31.43894 -3.0067,31.43894 -1.4452,0 -1.9434,-12.53969 -2.054,-31.2594 -0.1107,-18.71971 0.148,-43.61943 0.2836,-68.33949 0.1356,-24.72007 0.1485,-49.26048 -0.2541,-67.26155 -0.4027,-18.00108 -1.2018,-29.46282 -2.639,-28.02556 -1.4373,1.43726 -2.0804,14.33627 -2.4096,32.87632 -0.3291,18.54005 -0.3593,42.72114 -0.5029,66.72258 -0.1436,24.00143 -0.4001,47.82321 -1.0033,65.64462 -0.6033,17.82142 -1.5373,29.64248 -2.9825,29.64248 -1.4452,0 -1.9569,-11.82106 -2.0783,-29.4627 -0.1214,-17.64164 0.1313,-41.10386 0.2744,-64.38619 0.1432,-23.28233 0.1774,-46.38476 -0.2038,-63.30681 -0.3812,-16.92206 -1.1606,-27.66374 -2.5997,-26.22458 -1.4392,1.43917 -2.1037,13.62002 -2.4543,31.08177 -0.3506,17.46174 -0.4007,40.20438 -0.5507,62.76712 -0.15,22.56275 -0.3995,44.94559 -0.9916,61.68775 -0.5921,16.74216 -1.5126,27.84364 -2.9578,27.84364 -1.4452,0 -1.9703,-11.10148 -2.1029,-27.66362 -0.1327,-16.56215 0.1129,-38.58496 0.2617,-60.42764 0.1489,-21.84268 0.2016,-43.50523 -0.1606,-59.34683 -0.3621,-15.84161 -1.1238,-25.86227 -2.5648,-24.42119 -1.4411,1.44108 -2.1249,12.90283 -2.4946,29.28484 -0.3697,16.38201 -0.4369,37.68428 -0.5914,58.80642 -0.1545,21.12214 -0.3959,42.06415 -0.9764,57.72562 -0.5805,15.66147 -1.4876,26.0424 -2.9328,26.0424 -1.4452,0 -1.9837,-10.38094 -2.128,-25.86215 -0.1443,-15.48121 0.093,-36.06271 0.2456,-56.46383 0.1526,-20.40112 0.2211,-40.62186 -0.1243,-55.38158 -0.3455,-14.75971 -1.0915,-24.0584 -2.5345,-22.61539 -1.443,1.443 -2.1441,12.18468 -2.5304,27.48552 -0.3864,15.30084 -0.4681,35.16084 -0.6252,54.84046 -0.1571,19.67961 -0.3892,39.17886 -0.9576,53.7582 -0.5684,14.57934 -1.4622,24.23877 -2.9074,24.23877 -1.4452,0 -1.997,-9.65943 -2.1535,-24.05828 -0.1565,-14.39884 0.072,-33.53709 0.226,-52.49473 0.1545,-18.95764 0.236,-37.73466 -0.095,-51.41104 -0.3312,-13.67638 -1.0635,-22.25211 -2.5084,-20.80718 -1.4449,1.44493 -2.1614,11.46559 -2.562,25.68382 -0.4007,14.21823 -0.494,32.63402 -0.6517,50.86919 -0.1578,18.23517 -0.3797,36.28973 -0.9355,49.78549 -0.5558,13.49576 -1.4363,22.43273 -2.8815,22.43273 -1.4452,0 -2.0102,-8.93697 -2.1794,-22.252 -0.1691,-13.31502 0.048,-31.0081 0.2028,-48.52033 0.1545,-17.51222 0.2462,-34.84358 -0.073,-47.43518 -0.3194,-12.59159 -1.0399,-20.44341 -2.4868,-18.99655 -1.4468,1.44687 -2.1767,10.74556 -2.5892,23.87972 -0.4124,13.13417 -0.5147,30.10382 -0.6712,46.89261 -0.1564,16.78879 -0.3669,33.39672 -0.9096,45.80746 -0.5428,12.41073 -1.4101,20.62427 -2.8553,20.62427 -1.4452,0 -2.0234,-8.21354 -2.2057,-20.44329 -0.1822,-12.22976 0.024,-28.47573 0.1761,-44.5406 0.1525,-16.06488 0.2518,-31.94865 -0.058,-43.454 -0.31,-11.50535 -1.0207,-18.63228 -2.4696,-17.18347 -1.4488,1.44881 -2.19,10.02455 -2.6119,22.0732 -0.4219,12.04866 -0.5302,27.57023 -0.6835,42.91069 -0.3066,30.68094 -0.8186,60.63747 -3.709,60.63747 -1.4452,0 -2.0366,-7.48913 -2.2324,-18.63216 -0.1958,-11.14303 -0,-25.93995 0.1459,-40.55552 0.2969,-29.23115 0.3942,-57.73693 -2.5073,-54.8354 -2.9015,2.90152 -3.0227,31.40729 -3.3189,59.18768 -0.2963,27.78039 -0.7587,54.8354 -3.6491,54.8354 -2.8905,0 -2.4326,-27.05501 -2.1474,-53.38366 0.2851,-26.32865 0.4069,-51.93095 -2.4985,-49.02551 -2.9055,2.90545 -3.0488,28.50774 -3.3307,53.38367 -0.282,24.87593 -0.6948,49.0255 -3.5852,49.0255 -2.8905,0 -2.4875,-23.71086 -2.2151,-47.33725 0.2725,-23.62639 0.4152,-47.16831 -2.4773,-46.83042 -2.8925,0.33789 -3.0376,23.8798 -3.3094,47.33725 -0.2719,23.45745 -0.6696,46.83042 -3.56,46.83042 -2.8905,0 -2.4909,-23.49141 -2.219,-46.99499 0.2719,-23.50358 0.4161,-47.01932 -2.474,-47.06798 -2.8902,-0.0487 -3.0341,23.46708 -3.3061,46.99499 -0.272,23.52791 -0.6723,47.06798 -3.5627,47.06798 -2.8905,0 -2.4908,-23.5 -2.219,-47 0.2719,-23.5 0.416,-47 -2.4744,-47 -2.8905,0 -3.0346,23.5 -3.3065,47 -0.2718,23.5 -0.6715,47 -3.562,47 -2.8904,0 -2.4907,-23.5 -2.2189,-47 0.2719,-23.5 0.416,-47 -2.4744,-47 -2.8905,0 -3.0346,23.5 -3.3065,47 -0.2718,23.5 -0.6715,47 -3.562,47 -2.8904,0 -2.4907,-23.5 -2.2189,-47 0.2719,-23.5 0.416,-47 -2.4745,-47 -2.8904,0 -3.0345,23.5 -3.3064,47 -0.2719,23.5 -0.6715,47 -3.562,47 -2.8904,0 -2.4908,-23.5 -2.2189,-47 0.2719,-23.5 0.416,-47 -2.4745,-47 -2.8904,0 -3.0345,23.5 -3.3064,47 -0.2719,23.5 -0.6715,47 -3.562,47 -2.8904,0 -2.4908,-23.5 -2.2189,-47 0.2719,-23.5 0.416,-47 -2.4745,-47 -2.8904,0 -3.0345,23.5 -3.3064,47 -0.2719,23.5 -0.6715,47 -3.562,47 -2.8904,0 -2.4908,-23.5 -2.2189,-47 0.2719,-23.5 0.416,-47 -2.4745,-47 -2.8904,0 -3.0345,23.5 -3.3064,47 -0.2719,23.5 -0.6715,47 -3.562,47 -2.8904,0 -2.4908,-23.5 -2.2189,-47 0.2719,-23.5 0.416,-47 -2.4745,-47 -2.8904,0 -3.0345,23.5 -3.3064,47 -0.2719,23.5 -0.6715,47 -3.562,47 -2.8904,0 -2.4908,-23.5 -2.2189,-47 0.2719,-23.5 0.416,-47 -2.4745,-47 -2.8904,0 -3.0345,23.5 -3.3064,47 -0.2719,23.5 -0.6715,47 -3.562,47 -2.8904,0 -2.4908,-23.5 -2.2189,-47 0.2719,-23.5 0.416,-47 -2.4745,-47 -2.8904,0 -3.0345,23.5 -3.3064,47 -0.2719,23.5 -0.6716,47 -3.562,47 -2.8905,0 -2.4908,-23.5 -2.2189,-47 0.2719,-23.5 0.416,-47 -2.4745,-47 -2.8904,0 -3.0345,23.5 -3.3064,47 -0.2719,23.5 -0.6716,47 -3.562,47 -2.8905,0 -2.4908,-23.5 -2.2189,-47 0.2719,-23.5 0.4159,-47 -2.4745,-47 -2.8905,0 -3.0345,23.5 -3.3064,47 -0.2719,23.5 -0.6716,47 -3.562,47 -2.8905,0 -2.4908,-23.5 -2.2189,-47 0.2718,-23.5 0.4159,-47 -2.4745,-47 -2.8905,0 -3.0346,23.5 -3.3064,47 -0.2719,23.5 -0.6716,47 -3.562,47 -2.8905,0 -2.4908,-23.5 -2.2189,-47 0.2718,-23.5 0.4159,-47 -2.4745,-47 -2.8905,0 -3.0346,23.5 -3.3064,47 -0.2719,23.5 -0.6716,47 -3.562,47 -2.8905,0 -2.4908,-23.5 -2.2189,-47 0.2718,-23.5 0.4159,-47 -2.4745,-47 -2.8905,0 -3.0346,23.5 -3.3064,47 -0.2719,23.5 -0.6716,47 -3.562,47 -2.8905,0 -2.4908,-23.5 -2.2189,-47 0.2718,-23.5 0.4159,-47 -2.4745,-47 -2.8905,0 -3.0346,23.5 -3.3065,47 -0.2718,23.5 -0.6715,47 -3.5619,47 -2.8905,0 -2.4908,-23.5 -2.219,-47 0.2719,-23.5 0.416,-47 -2.4744,-47 -2.8905,0 -3.0346,23.5 -3.3065,47 -0.2718,23.5 -0.6715,47 -3.5619,47 -2.8905,0 -2.4908,-23.5 -2.219,-47 0.2719,-23.5 0.416,-47 -2.4744,-47 -2.8905,0 -3.0346,23.5 -3.3065,47 -0.2718,23.5 -0.6715,47 -3.562,47 -2.8904,0 -2.4907,-23.5 -2.2189,-47 0.2719,-23.5 0.416,-47 -2.4744,-47 -2.8905,0 -3.0346,23.5 -3.3065,47 -0.2718,23.5 -0.6715,47 -3.562,47 -2.8904,0 -2.4908,-23.5 -2.2189,-47 0.2719,-23.5 0.416,-47 -2.4745,-47 -2.8904,0 -3.0345,23.5 -3.3064,47 -0.2719,23.5 -0.6715,47 -3.562,47 -2.8904,0 -2.4908,-23.5 -2.2189,-47 0.2719,-23.5 0.416,-47 -2.4745,-47 -2.8904,0 -3.0345,23.5 -3.3064,47 -0.2719,23.5 -0.6715,47 -3.562,47 -2.8904,0 -2.4908,-23.5 -2.2189,-47 0.2719,-23.5 0.416,-47 -2.4745,-47 -2.8904,0 -3.0345,23.5 -3.3064,47 -0.2719,23.5 -0.6715,47 -3.562,47 -2.8904,0 -2.4908,-23.5 -2.2189,-47 0.2719,-23.5 0.416,-47 -2.4745,-47 -2.8904,0 -3.0345,23.5 -3.3064,47 -0.2719,23.5 -0.6715,47 -3.562,47 -2.8904,0 -2.4908,-23.5 -2.2189,-47 0.2719,-23.5 0.416,-47 -2.4745,-47 -2.8904,0 -3.0345,23.5 -3.3064,47 -0.2719,23.5 -0.6715,47 -3.562,47 -2.8904,0 -2.4908,-23.5 -2.2189,-47 0.2719,-23.5 0.416,-47 -2.4745,-47 -2.8904,0 -3.0345,23.5 -3.3064,47 -0.2719,23.5 -0.6715,47 -3.562,47 -2.8904,0 -2.4908,-23.5 -2.2189,-47 0.2719,-23.5 0.416,-47 -2.4745,-47 -2.8904,0 -3.0345,23.5 -3.3064,47 -0.2719,23.5 -0.6716,47 -3.562,47 -2.8905,0 -2.4908,-23.5 -2.2189,-47 0.2719,-23.5 0.416,-47 -2.4745,-47 -2.8904,0 -3.0345,23.5 -3.3064,47 -0.2719,23.5 -0.6716,47 -3.562,47 -2.8905,0 -2.4908,-23.5 -2.2189,-47 0.2719,-23.5 0.4159,-47 -2.4745,-47 -2.8905,0 -3.0346,23.5 -3.3064,47 -0.2719,23.5 -0.6716,47 -3.562,47 -2.8905,0 -2.4908,-23.5 -2.2189,-47 0.2718,-23.5 0.4159,-47 -2.4745,-47 -2.8905,0 -3.0346,23.5 -3.3064,47 -0.2719,23.5 -0.6716,47 -3.562,47 -2.8905,0 -2.4908,-23.5 -2.2189,-47 0.2718,-23.5 0.4159,-47 -2.4745,-47 -2.8905,0 -3.0346,23.5 -3.3064,47 -0.2719,23.5 -0.6716,47 -3.562,47 -2.8905,0 -2.4908,-23.5 -2.2189,-47 0.2718,-23.5 0.4159,-47 -2.4745,-47 -2.8905,0 -3.0346,23.5 -3.3064,47 -0.2719,23.5 -0.6716,47 -3.562,47 -2.8905,0 -2.4908,-23.5 -2.219,-47 0.2719,-23.5 0.416,-47 -2.4744,-47 -2.8905,0 -3.0346,23.5 -3.3065,47 -0.2718,23.5 -0.6715,47 -3.5619,47 -2.8905,0 -2.4883,-23.76238 -2.2213,-46.79728 0.267,-23.0349 0.4072,-45.34233 -2.5027,-42.43243 -2.9099,2.9099 -3.0688,25.21733 -3.3299,46.79728 -0.2611,21.57995 -0.6175,42.43243 -3.5079,42.43243 -2.8905,0 -2.5376,-20.85248 -2.2907,-40.97649 0.2468,-20.12402 0.3948,-39.51957 -2.519,-36.60572 -2.9139,2.91386 -3.0852,22.95161 -3.324,41.55011 -0.2388,18.5985 -0.5326,35.75776 -3.3757,32.91463 -2.8431,-2.84313 -2.5663,-20.00239 -2.3696,-35.72141 0.1967,-15.71902 0.3238,-29.9978 -2.594,-27.07998 -2.9179,2.91782 -3.0594,17.19661 -3.2244,30.03423 -0.165,12.83763 -0.3451,24.2341 -3.1919,21.38729 -2.8468,-2.84681 -2.6781,-14.24328 -2.5533,-24.19759 0.1247,-9.95432 0.2121,-18.46648 -2.7097,-15.54467 -2.9218,2.9218 -3.0178,11.43397 -3.1088,18.50305 -0.091,7.06908 -0.1723,12.69509 -3.0228,9.84458 -5.701,-5.70102 0.288,-22.50402 -5.5636,-16.6524 -5.8516,5.85161 -2.9921,8.09715 -2.9921,8.09715"
         style="fill:none;stroke:#000000;stroke-width:1px;stroke-linecap:butt;stroke-linejoin:miter;stroke-opacity:1" />
      <path
         inkscape:original-d="m 1343,153.625 c 0,33.33333 0,66.66667 0,100 -31.9167,31.91667 -63.8333,63.83333 -95.75,95.75 103.8333,0 207.6667,0 311.5,0 66.6667,-66.66667 133.3333,-133.33333 200,-200 186.0833,0 372.1667,0 558.25,0 0,-11.91667 0,-23.83333 0,-35.75 -12.75,-12.75 -25.5,-25.5 -38.25,-38.25 -285.8333,0 -571.6667,0 -857.5,0 -26.0833,26.08333 -52.1667,52.16667 -78.25,78.25 z"
         inkscape:path-effect="#path-effect3473"
         inkscape:connector-curvature="0"
         id="path3069"
         d="m 2316.5813,149.375 c 0,0 0.6723,-8.38905 0.5743,-17.53019 -0.098,-9.14114 -0.9696,-19.03437 -3.9779,-22.04275 -3.0084,-3.00838 -2.8689,6.88485 -2.7483,17.53018 0.1206,10.64533 0.2174,22.04276 -2.7499,22.04276 -2.9673,0 -3.0618,-11.39742 -3.2018,-23.54817 -0.1401,-12.15074 -0.3301,-25.05481 -3.3434,-28.068091 -3.0132,-3.013281 -2.8103,9.890781 -2.6447,23.548171 0.1657,13.65738 0.288,28.06809 -2.6792,28.06809 -2.9673,0 -3.0868,-14.4107 -3.2738,-29.57596 -0.187,-15.16526 -0.447,-31.085062 -3.4652,-34.103267 -3.0182,-3.018206 -2.7422,12.901601 -2.5265,29.575957 0.2157,16.67436 0.3636,34.10327 -2.6037,34.10327 -2.9672,0 -3.1181,-18.02705 -3.3584,-36.21174 -0.2403,-18.184699 -0.5716,-36.527047 -3.5503,-37.157654 -2.9787,-0.630606 -2.6437,17.711742 -2.3968,36.211744 0.2468,18.5 0.4037,37.15765 -2.5636,37.15765 -2.9672,0 -3.1225,-18.5 -3.3689,-37 -0.2464,-18.5 -0.584,-37 -3.5513,-37 -2.9673,0 -2.6297,18.5 -2.3833,37 0.2465,18.5 0.4017,37 -2.5656,37 -2.9673,0 -3.1225,-18.5 -3.3689,-37 -0.2464,-18.5 -0.584,-37 -3.5513,-37 -2.9673,0 -2.6297,18.5 -2.3833,37 0.2464,18.5 0.4017,37 -2.5656,37 -2.9673,0 -3.1225,-18.5 -3.3689,-37 -0.2464,-18.5 -0.584,-37 -3.5513,-37 -2.9673,0 -2.6297,18.5 -2.3833,37 0.2464,18.5 0.4017,37 -2.5656,37 -2.9673,0 -3.1225,-18.5 -3.3689,-37 -0.2465,-18.5 -0.584,-37 -3.5513,-37 -2.9673,0 -2.6297,18.5 -2.3833,37 0.2464,18.5 0.4017,37 -2.5656,37 -2.9673,0 -3.1225,-18.5 -3.3689,-37 -0.2465,-18.5 -0.5841,-37 -3.5513,-37 -2.9673,0 -2.6297,18.5 -2.3833,37 0.2464,18.5 0.4017,37 -2.5656,37 -2.9673,0 -3.1225,-18.5 -3.369,-37 -0.2464,-18.5 -0.584,-37 -3.5512,-37 -2.9673,0 -2.6297,18.5 -2.3833,37 0.2464,18.5 0.4016,37 -2.5656,37 -2.9673,0 -3.1226,-18.5 -3.369,-37 -0.2464,-18.5 -0.584,-37 -3.5513,-37 -2.9672,0 -2.6296,18.5 -2.3832,37 0.2464,18.5 0.4016,37 -2.5656,37 -2.9673,0 -3.1226,-18.5 -3.369,-37 -0.2464,-18.5 -0.584,-37 -3.5513,-37 -2.9672,0 -2.6297,18.5 -2.3832,37 0.2464,18.5 0.4016,37 -2.5657,37 -2.9672,0 -3.1225,-18.5 -3.3689,-37 -0.2464,-18.5 -0.584,-37 -3.5513,-37 -2.9673,0 -2.6297,18.5 -2.3833,37 0.2465,18.5 0.4017,37 -2.5656,37 -2.9672,0 -3.1225,-18.5 -3.3689,-37 -0.2464,-18.5 -0.584,-37 -3.5513,-37 -2.9673,0 -2.6297,18.5 -2.3833,37 0.2465,18.5 0.4017,37 -2.5656,37 -2.9673,0 -3.1225,-18.5 -3.3689,-37 -0.2464,-18.5 -0.584,-37 -3.5513,-37 -2.9673,0 -2.6297,18.5 -2.3833,37 0.2464,18.5 0.4017,37 -2.5656,37 -2.9673,0 -3.1225,-18.5 -3.3689,-37 -0.2464,-18.5 -0.584,-37 -3.5513,-37 -2.9673,0 -2.6297,18.5 -2.3833,37 0.2464,18.5 0.4017,37 -2.5656,37 -2.9673,0 -3.1225,-18.5 -3.3689,-37 -0.2465,-18.5 -0.5841,-37 -3.5513,-37 -2.9673,0 -2.6297,18.5 -2.3833,37 0.2464,18.5 0.4017,37 -2.5656,37 -2.9673,0 -3.1225,-18.5 -3.369,-37 -0.2464,-18.5 -0.584,-37 -3.5512,-37 -2.9673,0 -2.6297,18.5 -2.3833,37 0.2464,18.5 0.4016,37 -2.5656,37 -2.9673,0 -3.1226,-18.5 -3.369,-37 -0.2464,-18.5 -0.584,-37 -3.5513,-37 -2.9672,0 -2.6296,18.5 -2.3832,37 0.2464,18.5 0.4016,37 -2.5656,37 -2.9673,0 -3.1226,-18.5 -3.369,-37 -0.2464,-18.5 -0.584,-37 -3.5513,-37 -2.9672,0 -2.6297,18.5 -2.3832,37 0.2464,18.5 0.4016,37 -2.5657,37 -2.9672,0 -3.1225,-18.5 -3.3689,-37 -0.2464,-18.5 -0.584,-37 -3.5513,-37 -2.9673,0 -2.6297,18.5 -2.3832,37 0.2464,18.5 0.4016,37 -2.5657,37 -2.9672,0 -3.1225,-18.5 -3.3689,-37 -0.2464,-18.5 -0.584,-37 -3.5513,-37 -2.9673,0 -2.6297,18.5 -2.3833,37 0.2465,18.5 0.4017,37 -2.5656,37 -2.9673,0 -3.1225,-18.5 -3.3689,-37 -0.2464,-18.5 -0.584,-37 -3.5513,-37 -2.9673,0 -2.6297,18.5 -2.3833,37 0.2464,18.5 0.4017,37 -2.5656,37 -2.9673,0 -3.1225,-18.5 -3.3689,-37 -0.2464,-18.5 -0.584,-37 -3.5513,-37 -2.9673,0 -2.6297,18.5 -2.3833,37 0.2464,18.5 0.4017,37 -2.5656,37 -2.9673,0 -3.1225,-18.5 -3.3689,-37 -0.2465,-18.5 -0.584,-37 -3.5513,-37 -2.9673,0 -2.6297,18.5 -2.3833,37 0.2464,18.5 0.4017,37 -2.5656,37 -2.9673,0 -3.1225,-18.5 -3.369,-37 -0.2464,-18.5 -0.584,-37 -3.5512,-37 -2.9673,0 -2.6297,18.5 -2.3833,37 0.2464,18.5 0.4017,37 -2.5656,37 -2.9673,0 -3.1225,-18.5 -3.369,-37 -0.2464,-18.5 -0.584,-37 -3.5512,-37 -2.9673,0 -2.6297,18.5 -2.3833,37 0.2464,18.5 0.4016,37 -2.5656,37 -2.9673,0 -3.1226,-18.5 -3.369,-37 -0.2464,-18.5 -0.584,-37 -3.5513,-37 -2.9672,0 -2.6296,18.5 -2.3832,37 0.2464,18.5 0.4016,37 -2.5657,37 -2.9672,0 -3.1225,-18.5 -3.3689,-37 -0.2464,-18.5 -0.584,-37 -3.5513,-37 -2.9673,0 -2.6297,18.5 -2.3832,37 0.2464,18.5 0.4016,37 -2.5657,37 -2.9672,0 -3.1225,-18.5 -3.3689,-37 -0.2464,-18.5 -0.584,-37 -3.5513,-37 -2.9673,0 -2.6297,18.5 -2.3833,37 0.2465,18.5 0.4017,37 -2.5656,37 -2.9673,0 -3.1225,-18.5 -3.3689,-37 -0.2464,-18.5 -0.584,-37 -3.5513,-37 -2.9673,0 -2.6297,18.5 -2.3833,37 0.2464,18.5 0.4017,37 -2.5656,37 -2.9673,0 -3.1225,-18.5 -3.3689,-37 -0.2464,-18.5 -0.584,-37 -3.5513,-37 -2.9673,0 -2.6297,18.5 -2.3833,37 0.2464,18.5 0.4017,37 -2.5656,37 -2.9673,0 -3.1225,-18.5 -3.3689,-37 -0.2465,-18.5 -0.584,-37 -3.5513,-37 -2.9673,0 -2.6297,18.5 -2.3833,37 0.2464,18.5 0.4017,37 -2.5656,37 -2.9673,0 -3.1225,-18.5 -3.3689,-37 -0.2465,-18.5 -0.5841,-37 -3.5513,-37 -2.9673,0 -2.6297,18.5 -2.3833,37 0.2464,18.5 0.4017,37 -2.5656,37 -2.9673,0 -3.1225,-18.5 -3.369,-37 -0.2464,-18.5 -0.584,-37 -3.5512,-37 -2.9673,0 -2.6297,18.5 -2.3833,37 0.2464,18.5 0.4016,37 -2.5656,37 -2.9673,0 -3.1226,-18.5 -3.369,-37 -0.2464,-18.5 -0.584,-37 -3.5513,-37 -2.9672,0 -2.6296,18.5 -2.3832,37 0.2464,18.5 0.4016,37 -2.5656,37 -2.9673,0 -3.1226,-18.5 -3.369,-37 -0.2464,-18.5 -0.584,-37 -3.5513,-37 -2.9672,0 -2.6297,18.5 -2.3832,37 0.2464,18.5 0.4016,37 -2.5657,37 -2.9672,0 -3.1225,-18.5 -3.3689,-37 -0.2464,-18.5 -0.584,-37 -3.5513,-37 -2.9673,0 -2.6297,18.5 -2.3833,37 0.2465,18.5 0.4017,37 -2.5656,37 -2.9672,0 -3.1225,-18.5 -3.3689,-37 -0.2464,-18.5 -0.584,-37 -3.5513,-37 -2.9673,0 -2.6297,18.5 -2.3833,37 0.2465,18.5 0.4017,37 -2.5656,37 -2.9673,0 -3.1225,-18.5 -3.3689,-37 -0.2464,-18.5 -0.584,-37 -3.5513,-37 -2.9673,0 -2.6297,18.5 -2.3833,37 0.2464,18.5 0.4017,37 -2.5656,37 -2.9673,0 -3.1225,-18.5 -3.3689,-37 -0.2464,-18.5 -0.584,-37 -3.5513,-37 -2.9673,0 -2.6297,18.5 -2.3833,37 0.2464,18.5 0.4017,37 -2.5656,37 -2.9673,0 -3.1225,-18.5 -3.3689,-37 -0.2465,-18.5 -0.5841,-37 -3.5513,-37 -2.9673,0 -2.6297,18.5 -2.3833,37 0.2464,18.5 0.4017,37 -2.5656,37 -2.9673,0 -3.1225,-18.5 -3.369,-37 -0.2464,-18.5 -0.584,-37 -3.5512,-37 -2.9673,0 -2.6297,18.5 -2.3833,37 0.2464,18.5 0.4016,37 -2.5656,37 -2.9673,0 -3.1226,-18.5 -3.369,-37 -0.2464,-18.5 -0.584,-37 -3.5513,-37 -2.9672,0 -2.6296,18.5 -2.3832,37 0.2464,18.5 0.4016,37 -2.5656,37 -2.9673,0 -3.1226,-18.5 -3.369,-37 -0.2464,-18.5 -0.584,-37 -3.5513,-37 -2.9672,0 -2.6297,18.5 -2.3832,37 0.2464,18.5 0.4016,37 -2.5657,37 -2.9672,0 -3.1225,-18.5 -3.3689,-37 -0.2464,-18.5 -0.584,-37 -3.5513,-37 -2.9673,0 -2.6297,18.5 -2.3832,37 0.2464,18.5 0.4016,37 -2.5657,37 -2.9672,0 -3.1225,-18.5 -3.3689,-37 -0.2464,-18.5 -0.584,-37 -3.5513,-37 -2.9673,0 -2.6297,18.497898 -2.3833,36.9979 0.2464,18.5 0.4017,37.0021 -2.5655,37.01051 -2.9672,0.008 -3.1224,-18.4937 -3.3689,-36.9979 -0.2464,-18.504204 -0.5841,-37.01051 -3.5514,-37.01051 -2.9673,0 -2.6143,19.239564 -2.3541,39.21564 0.2602,19.97607 0.4203,40.68865 -2.5257,43.63467 -2.9461,2.94603 -3.0858,-17.76655 -3.3526,-39.21563 -0.2667,-21.449087 -0.6694,-43.63468 -3.6367,-43.63468 -2.9673,0 -2.5602,22.185591 -2.2797,45.10884 0.2806,22.92325 0.4263,46.58416 -2.5244,49.53479 -2.9506,2.95063 -3.073,-20.71028 -3.3572,-45.10884 -0.2843,-24.39857 -0.7405,-49.53479 -3.7078,-49.53479 -2.9673,0 -2.5061,25.13622 -2.2097,51.01125 0.2963,25.87504 0.4182,52.48889 -2.537,55.44414 -2.9553,2.95525 -3.051,-23.65859 -3.3481,-51.01125 -0.1486,-13.67633 -0.3424,-27.53737 -0.8796,-37.97932 -0.5371,-10.441951 -1.4111,-17.46482 -2.8947,-17.46482 -2.9673,0 -2.4519,28.09147 -2.1444,56.92292 0.1538,14.41573 0.2621,29.01644 -0.049,40.38322 -0.3108,11.36677 -1.0348,19.4996 -2.5147,20.97955 -1.48,1.47995 -2.2324,-5.17293 -2.6532,-15.98472 -0.4209,-10.81179 -0.5191,-25.7825 -0.6718,-40.9382 -0.1527,-15.1557 -0.3603,-30.49639 -0.9123,-42.048159 -0.552,-11.551768 -1.4403,-19.314611 -2.924,-19.314611 -1.4836,0 -2.0786,7.762843 -2.2658,19.49975 -0.1872,11.73691 0.025,27.44788 0.1823,43.34414 0.157,15.89625 0.2582,31.97779 -0.063,44.45584 -0.3215,12.47805 -1.0585,21.35261 -2.5407,22.83489 -1.4823,1.48229 -2.2238,-5.90999 -2.6339,-17.83218 -0.4101,-11.92219 -0.4994,-28.3743 -0.6539,-45.0117 -0.1545,-16.6374 -0.3746,-33.46009 -0.9409,-46.123421 -0.5663,-12.663334 -1.4691,-21.167319 -2.9528,-21.167319 -1.4836,0 -2.0641,8.503984 -2.237,21.35275 -0.173,12.84877 0.052,30.04231 0.2098,47.42144 0.1579,17.37913 0.2485,34.94383 -0.087,48.53491 -0.3352,13.59108 -1.0876,23.20854 -2.5722,24.69317 -1.4846,1.48462 -2.2126,-6.6482 -2.609,-19.68255 -0.3964,-13.03434 -0.4735,-30.9702 -0.6274,-49.09164 -0.154,-18.12145 -0.3852,-36.42846 -0.9653,-50.205123 -0.58,-13.776658 -1.4975,-23.022957 -2.9812,-23.022957 -1.4836,0 -2.0494,9.246298 -2.2087,23.208682 -0.1593,13.962388 0.077,32.640858 0.2331,51.505198 0.1565,18.86434 0.2332,37.91456 -0.1188,52.62043 -0.352,14.70588 -1.1221,25.06742 -2.6091,26.5544 -1.487,1.48699 -2.1992,-7.38757 -2.5788,-21.53582 -0.3797,-14.14826 -0.4412,-33.57022 -0.5922,-53.17806 -0.151,-19.60783 -0.3921,-39.40154 -0.9854,-54.29329 -0.5933,-14.891749 -1.5255,-24.88154 -3.0092,-24.88154 -1.4836,0 -2.0347,9.98979 -2.1808,25.06756 -0.1461,15.07777 0.099,35.24352 0.2522,55.59544 0.1527,20.35192 0.2121,40.89 -0.1596,56.71245 -0.3717,15.82244 -1.1622,26.92925 -2.6516,28.4186 -1.4893,1.48935 -2.1831,-8.1281 -2.5431,-23.39204 -0.3599,-15.26394 -0.4023,-36.17436 -0.5481,-57.27096 -0.1458,-21.09659 -0.3953,-42.37936 -1.0013,-58.38797 -0.6061,-16.008614 -1.5532,-26.74308 -3.0368,-26.74308 -1.4836,0 -2.0198,10.734466 -2.1533,26.9294 -0.1334,16.19493 0.1204,37.85033 0.267,59.69219 0.1466,21.84186 0.1853,43.87019 -0.2091,60.81099 -0.3945,16.9408 -1.2078,28.79406 -2.6996,30.28579 -1.4917,1.49173 -2.1647,-8.86981 -2.5019,-25.2512 -0.3371,-16.3814 -0.3572,-38.78266 -0.4953,-61.37039 -0.1381,-22.58773 -0.3948,-45.36192 -1.013,-62.48919 -0.6182,-17.12726 -1.5803,-28.60759 -3.0639,-28.60759 -1.4836,0 -2.0048,11.48033 -2.1262,28.79421 -0.1213,17.31388 0.1395,40.4613 0.2776,63.79549 0.138,23.33419 0.1526,46.85515 -0.2676,64.91608 -0.4202,18.06094 -1.2589,30.66186 -2.7531,32.15598 -1.4941,1.49412 -2.1438,-9.61268 -2.4551,-27.11332 -0.3114,-17.50064 -0.3055,-41.39513 -0.4336,-65.47638 -0.1281,-24.08125 -0.3907,-48.34926 -1.0205,-66.59697 -0.6298,-18.2477 -1.607,-30.47509 -3.0906,-30.47509 -1.4837,0 -1.9897,12.22739 -2.0995,30.66201 -0.1098,18.43461 0.1567,43.07646 0.2838,67.90537 0.1271,24.82891 0.1142,49.84488 -0.3349,69.02776 -0.449,19.18288 -1.3156,32.53266 -2.8121,34.02918 -1.4965,1.49652 -2.1204,-10.35674 -2.4029,-28.97842 -0.2825,-18.62168 -0.2473,-44.01179 -0.363,-69.58896 -0.1156,-25.57717 -0.3827,-51.3414 -1.0236,-70.71135 -0.6409,-19.36994 -1.6333,-32.34559 -3.1169,-32.34559 -1.4837,0 -1.9745,12.97565 -2.0732,32.53281 -0.099,19.55716 0.172,45.69582 0.2858,72.02186 0.1138,26.32603 0.07,52.83943 -0.4111,73.14605 -0.481,20.30663 -1.378,34.40648 -2.8769,35.90541 -1.499,1.49894 -2.0944,-11.10198 -2.345,-30.8465 -0.2506,-19.74453 -0.1827,-46.63266 -0.2835,-73.70816 -0.1008,-27.0755 -0.3709,-54.33837 -1.0224,-74.83236 -0.6515,-20.493993 -1.6592,-34.21911 -3.1428,-34.21911 -1.4837,0 -1.9591,13.725116 -2.0474,34.40663 -0.088,20.68151 0.1855,48.31941 0.2835,76.14498 0.098,27.82557 0.02,55.83882 -0.4964,77.27101 -0.516,21.43218 -1.4458,36.28332 -2.9472,37.78468 -1.5013,1.50136 -2.066,-11.84842 -2.2815,-32.7176 -0.2156,-20.86918 -0.1114,-49.25776 -0.195,-77.83401 -0.083,-28.57625 -0.3554,-57.34018 -1.0169,-78.96004 -0.6615,-21.619854 -1.6846,-36.09565 -3.1683,-36.09565 -1.4836,0 -1.9435,14.475795 -2.0219,36.28348 -0.078,21.80768 0.197,50.94724 0.2768,80.27478 0.08,29.32754 -0.036,58.84305 -0.5905,81.40263 -0.5541,22.55958 -1.5195,38.16322 -3.0233,39.66702 -1.5038,1.50379 -2.035,-12.59606 -2.2124,-34.59171 -0.1774,-21.99565 -0.034,-51.88712 -0.097,-81.96655 -0.064,-30.07944 -0.3361,-60.34685 -1.0071,-83.0944 -0.6709,-22.747557 -1.7096,-37.97525 -3.1933,-37.97525 -1.4836,0 -1.928,15.227693 -1.9969,38.16337 -0.069,22.93568 0.2066,53.57935 0.2658,84.41129 0.059,30.83195 -0.099,61.85217 -0.6939,85.54097 -0.5953,23.68881 -1.5987,40.04618 -3.1049,41.55242 -1.5063,1.50625 -2.0015,-13.34488 -2.1377,-36.46884 -0.1362,-23.12396 0.051,-54.52075 0.01,-86.10582 -0.042,-31.58507 -0.313,-63.35841 -0.9929,-87.23549 -0.6798,-23.877086 -1.7342,-39.8579 -3.2179,-39.8579 -1.4836,0 -1.9123,15.980814 -1.9724,40.04633 -0.06,24.06551 0.2143,56.21573 0.2504,88.55453 0.036,32.33881 -0.1666,64.8662 -0.8062,89.68606 -0.6397,24.81987 -1.6837,41.93221 -3.1924,43.44091 -1.5087,1.50871 -1.9654,-14.09493 -2.0572,-38.34903 -0.092,-24.25411 0.1421,-57.15867 0.125,-90.25183 -0.017,-33.09315 -0.286,-66.3749 -0.9742,-91.38335 -0.6882,-25.008454 -1.7585,-41.74362 -3.2421,-41.74362 -1.4836,0 -1.8947,16.823593 -1.946,42.10922 -0.051,25.28562 0.2194,59.03328 0.2285,92.8814 0.01,33.84813 -0.2441,67.79672 -0.928,93.48422 -0.6839,25.6875 -1.7618,43.11391 -3.2599,43.91766 -1.4981,0.80375 -1.9139,-15.81891 -1.9663,-41.205 -0.053,-25.38609 0.218,-59.53562 0.2199,-93.78562 0,-34.25 -0.2655,-68.60047 -0.9592,-94.38844 -0.6938,-25.787971 -1.7745,-43.01344 -3.2581,-43.01344 -1.4836,0 -1.8886,17.125 -1.9372,42.8125 -0.049,25.6875 0.2199,59.9375 0.2199,94.1875 0,34.25 -0.2685,68.5 -0.9617,94.1875 -0.6932,25.6875 -1.7719,42.8125 -3.2556,42.8125 -1.4836,0 -1.8885,-17.125 -1.9372,-42.8125 -0.049,-25.6875 0.22,-59.9375 0.22,-94.1875 0,-34.25 -0.2686,-68.5 -0.9618,-94.1875 -0.6931,-25.6875 -1.7719,-42.8125 -3.2555,-42.8125 -1.4837,0 -1.8886,17.125 -1.9372,42.8125 -0.049,25.6875 0.2199,59.9375 0.2199,94.1875 0,34.25 -0.2686,68.5 -0.9617,94.1875 -0.6932,25.6875 -1.7719,42.8125 -3.2556,42.8125 -1.4836,0 -1.8885,-17.125 -1.9372,-42.8125 -0.049,-25.6875 0.2199,-59.9375 0.2199,-94.1875 0,-34.25 -0.2685,-68.5 -0.9617,-94.1875 -0.6932,-25.6875 -1.7719,-42.8125 -3.2555,-42.8125 -1.4837,0 -1.8886,17.125 -1.9372,42.8125 -0.049,25.6875 0.2199,59.9375 0.2199,94.1875 0,34.25 -0.2686,68.5 -0.9617,94.1875 -0.6932,25.6875 -1.7719,42.8125 -3.2556,42.8125 -1.4836,0 -1.8885,-17.125 -1.9372,-42.8125 -0.049,-25.6875 0.2199,-59.9375 0.2199,-94.1875 0,-34.25 -0.2685,-68.5 -0.9617,-94.1875 -0.6932,-25.6875 -1.7719,-42.8125 -3.2555,-42.8125 -1.4837,0 -1.8886,17.125 -1.9372,42.8125 -0.049,25.6875 0.2199,59.9375 0.2199,94.1875 0,34.25 -0.2686,68.5 -0.9618,94.1875 -0.6931,25.6875 -1.7719,42.8125 -3.2555,42.8125 -1.4836,0 -1.8885,-17.125 -1.9372,-42.8125 -0.049,-25.6875 0.2199,-59.9375 0.2199,-94.1875 0,-34.25 -0.2685,-68.5 -0.9617,-94.1875 -0.6932,-25.6875 -1.7719,-42.8125 -3.2556,-42.8125 -1.4836,0 -1.8885,17.125 -1.9371,42.8125 -0.049,25.6875 0.2199,59.9375 0.2199,94.1875 0,34.25 -0.2686,68.5 -0.9618,94.1875 -0.6931,25.6875 -1.7719,42.8125 -3.2555,42.8125 -1.4836,0 -1.8886,-17.125 -1.9372,-42.8125 -0.049,-25.6875 0.2199,-59.9375 0.2199,-94.1875 0,-34.25 -0.2685,-68.5 -0.9617,-94.1875 -0.6932,-25.6875 -1.7719,-42.8125 -3.2556,-42.8125 -1.4836,0 -1.8885,17.125 -1.9372,42.8125 -0.049,25.6875 0.22,59.9375 0.22,94.1875 0,34.25 -0.2686,68.5 -0.9618,94.1875 -0.6931,25.6875 -1.7719,42.8125 -3.2555,42.8125 -1.4837,0 -1.8886,-17.125 -1.9372,-42.8125 -0.049,-25.6875 0.2199,-59.9375 0.2199,-94.1875 0,-34.25 -0.2686,-68.5 -0.9617,-94.1875 -0.6932,-25.6875 -1.7719,-42.8125 -3.2556,-42.8125 -1.4836,0 -1.8885,17.125 -1.9372,42.8125 -0.049,25.6875 0.2199,59.9375 0.2199,94.1875 0,34.25 -0.2685,68.5 -0.9617,94.1875 -0.6932,25.6875 -1.7719,42.8125 -3.2555,42.8125 -1.4837,0 -1.8886,-17.125 -1.9372,-42.8125 -0.049,-25.6875 0.2199,-59.9375 0.2199,-94.1875 0,-34.25 -0.2686,-68.5 -0.9617,-94.1875 -0.6932,-25.6875 -1.772,-42.8125 -3.2556,-42.8125 -1.4836,0 -1.8885,17.125 -1.9372,42.8125 -0.049,25.6875 0.2199,59.9375 0.2199,94.1875 0,34.25 -0.2685,68.5 -0.9617,94.1875 -0.6932,25.6875 -1.7719,42.8125 -3.2555,42.8125 -1.4837,0 -1.8886,-17.125 -1.9372,-42.8125 -0.049,-25.6875 0.2199,-59.9375 0.2199,-94.1875 0,-34.25 -0.2686,-68.5 -0.9618,-94.1875 -0.6931,-25.6875 -1.7719,-42.8125 -3.2555,-42.8125 -1.4836,0 -1.8885,17.125 -1.9372,42.8125 -0.049,25.6875 0.2199,59.9375 0.2199,94.1875 0,34.25 -0.2685,68.5 -0.9617,94.1875 -0.6932,25.6875 -1.7719,42.8125 -3.2556,42.8125 -1.4836,0 -1.8885,-17.125 -1.9371,-42.8125 -0.049,-25.6875 0.2199,-59.9375 0.2199,-94.1875 0,-34.25 -0.2686,-68.5 -0.9618,-94.1875 -0.6931,-25.6875 -1.7719,-42.8125 -3.2555,-42.8125 -1.4837,0 -1.8886,17.125 -1.9372,42.8125 -0.049,25.6875 0.2199,59.9375 0.2199,94.1875 0,34.25 -0.2685,68.5 -0.9617,94.1875 -0.6932,25.6875 -1.7719,42.8125 -3.2556,42.8125 -1.4836,0 -1.8885,-17.125 -1.9372,-42.8125 -0.049,-25.6875 0.22,-59.9375 0.22,-94.1875 0,-34.25 -0.2686,-68.5 -0.9618,-94.1875 -0.6932,-25.6875 -1.7719,-42.8125 -3.2555,-42.8125 -1.4837,0 -1.8886,17.125 -1.9372,42.8125 -0.049,25.6875 0.2199,59.9375 0.2199,94.1875 0,34.25 -0.2686,68.5 -0.9617,94.1875 -0.6932,25.6875 -1.7719,42.8125 -3.2556,42.8125 -1.4836,0 -1.8875,-17.1794 -1.9358,-42.9213 -0.048,-25.7419 0.2195,-60.04629 0.2185,-94.29629 -10e-4,-34.25 -0.2706,-68.44561 -0.9617,-93.96991 -0.6911,-25.524304 -1.764,-42.377311 -3.2397,-41.942123 -1.4758,0.435189 -1.8811,17.723384 -1.9347,43.410883 -0.054,25.6875 0.2064,59.77431 0.2015,93.80671 -0,34.03241 -0.2747,68.01041 -0.9664,93.48032 -0.6918,25.46991 -1.7672,42.43171 -3.2508,42.43171 -1.4836,0 -1.895,-16.8341 -1.9475,-41.99406 -0.053,-25.15996 0.216,-58.64577 0.2296,-91.94921 0.014,-33.30344 -0.227,-66.42449 -0.8837,-90.85492 -0.6566,-24.43043 -1.6898,-40.170244 -3.1488,-38.711191 -1.4591,1.459054 -1.8927,18.657921 -1.9879,43.635491 -0.095,24.97758 0.115,57.73387 0.083,90.30778 -0.032,32.57391 -0.3063,64.96544 -0.9893,89.21349 -0.6831,24.24805 -1.7407,40.35262 -3.2243,40.35262 -1.4836,0 -1.9103,-16.10457 -1.9708,-40.1701 -0.061,-24.06553 0.2105,-56.09202 0.2482,-87.93584 0.038,-31.84383 -0.157,-63.50499 -0.7702,-86.83988 -0.6132,-23.33488 -1.6086,-38.343488 -3.0699,-36.8822 -1.4613,1.461289 -1.9346,17.93118 -2.0733,41.81405 -0.1386,23.88287 0.027,55.17871 -0.028,86.29189 -0.055,31.11318 -0.3304,62.0437 -1.005,85.19593 -0.6746,23.15222 -1.7169,38.52615 -3.2005,38.52615 -1.4837,0 -1.9255,-15.37393 -1.9946,-38.34335 -0.069,-22.96943 0.2032,-53.53434 0.2628,-83.91632 0.06,-30.38197 -0.093,-60.58101 -0.6651,-82.81866 -0.5725,-22.23766 -1.5325,-36.51394 -2.996,-35.0504 -1.4635,1.46353 -1.9743,17.20334 -2.1535,39.98982 -0.1793,22.78649 -0.054,52.61964 -0.1298,82.26984 -0.076,29.65021 -0.351,59.11748 -1.0166,81.17219 -0.6656,22.05472 -1.6927,36.69688 -3.1763,36.69688 -1.4837,0 -1.9407,-14.64216 -2.0189,-36.51379 -0.078,-21.87164 0.194,-50.97274 0.2733,-79.89062 0.079,-28.91787 -0.033,-57.65253 -0.5682,-78.79126 -0.5347,-21.13874 -1.4615,-34.68156 -2.9273,-33.21577 -1.4658,1.46579 -2.0116,16.4744 -2.2287,38.16281 -0.2171,21.68841 -0.1298,50.05661 -0.2237,78.2416 -0.094,28.18498 -0.368,56.18674 -1.024,77.14225 -0.656,20.95551 -1.668,34.86478 -3.1516,34.86478 -1.4837,0 -1.9558,-13.90927 -2.0436,-34.68142 -0.088,-20.77214 0.1829,-48.40717 0.2797,-75.85869 0.097,-27.45152 0.02,-54.71953 -0.4797,-74.75765 -0.4998,-20.03812 -1.3957,-32.84634 -2.8638,-31.37829 -1.468,1.46806 -2.0466,15.74434 -2.2987,36.33299 -0.252,20.58864 -0.1994,47.48963 -0.3092,74.20712 -0.1099,26.7175 -0.3815,53.25148 -1.0274,73.10609 -0.6459,19.85461 -1.6428,33.02985 -3.1265,33.02985 -1.4836,0 -1.9708,-13.17524 -2.0688,-32.8462 -0.098,-19.67096 0.17,-45.83765 0.2819,-71.82054 0.1119,-25.98289 0.068,-51.78199 -0.3994,-70.71779 -0.4677,-18.93579 -1.3351,-31.00828 -2.8055,-29.53794 -1.4703,1.47034 -2.0793,15.01316 -2.3635,34.50033 -0.2841,19.48717 -0.2628,44.91869 -0.3864,70.16641 -0.1236,25.24773 -0.3914,50.31166 -1.0266,69.06366 -0.6352,18.752 -1.6171,31.19207 -3.1008,31.19207 -1.4836,0 -1.9262,-15.56373 -2.0089,-37.25545 -0.083,-21.69172 0.1636,-49.51144 0.2476,-74.02343 0.084,-24.51198 0.022,-45.71623 -0.3808,-54.17701 -0.2015,-4.23039 -0.4847,-5.27492 -0.8886,-1.95411 -0.4038,3.32081 -0.9254,11.00695 -1.6564,24.2379 -1.4618,26.46188 -2.3205,48.64108 -2.8404,67.02507 -0.5199,18.38398 -0.7021,32.97276 -0.8601,44.2538 -0.3158,22.56209 -0.5142,31.89323 -3.4815,31.89323 -2.9673,0 -2.5713,-21.81592 -2.3072,-42.88447 0.2641,-21.06855 0.4054,-41.38973 -2.5841,-38.40027 -2.9894,2.98946 -3.1509,23.31065 -3.408,42.88447 -0.2571,19.57382 -0.6025,38.40027 -3.5698,38.40027 -2.9673,0 -2.6256,-18.82646 -2.3845,-36.90434 0.241,-18.07789 0.3891,-35.40721 -2.6051,-32.41294 -2.9943,2.99428 -3.1597,20.32359 -3.3907,36.90435 -0.231,16.58075 -0.5215,32.41293 -3.4888,32.41293 -2.9673,0 -2.6799,-15.83218 -2.4668,-30.91459 0.2131,-15.08241 0.3586,-29.41504 -2.6405,-26.41594 -2.9991,2.99911 -3.1589,17.33174 -3.359,30.9146 -0.2,13.58285 -0.4355,26.41593 -3.4028,26.41593 -2.9673,0 -2.7344,-12.83308 -2.554,-24.91517 0.1804,-12.08209 0.3137,-23.41319 -2.6903,-20.40923 -3.004,3.00396 -3.1486,14.33506 -3.3129,24.91517 -0.1643,10.58011 -0.3446,20.40923 -3.3119,20.40923 -2.9673,0 -2.7889,-9.82912 -2.6461,-18.90603 0.1428,-9.07691 0.2542,-17.40162 -2.7547,-14.39278 -3.0088,3.00884 -3.1285,11.33355 -3.2522,18.90604 -0.1237,7.57249 -0.2489,14.39277 -3.2161,14.39277 -2.9673,0 -2.8435,-6.82028 -2.7432,-12.88713 0.1003,-6.06685 0.1801,-11.38026 -2.8336,-8.36652 -6.0275,6.02748 -0.3578,21.25365 -6.2924,21.25365 -5.9345,0 0.2649,-15.22617 -5.7724,-9.18884 -6.0374,6.03734 -0.1621,9.18884 -6.0967,9.18884 -5.9345,0 -2.9649,-0.12789 -2.9649,-0.12789"
         style="fill:none;stroke:#000000;stroke-width:1px;stroke-linecap:butt;stroke-linejoin:miter;stroke-opacity:1" />
    </g>
    <use
       x="0"
       y="0"
       xlink:href="#g3061"
       id="use3128"
       transform="matrix(1,0,0,-1,-1.4609133e-4,999.99977)"
       width="3200"
       height="1000" />
    <use
       x="0"
       y="0"
       xlink:href="#g3061"
       id="use3130"
       transform="translate(1066.66,0)"
       width="3200"
       height="1000" />
    <use
       x="0"
       y="0"
       xlink:href="#use3128"
       id="use3132"
       transform="translate(1066.66,0)"
       width="3200"
       height="1000" />
    <use
       x="0"
       y="0"
       xlink:href="#g3061"
       id="use3134"
       transform="translate(-1066.66,0)"
       width="3200"
       height="1000" />
    <use
       x="0"
       y="0"
       xlink:href="#use3128"
       id="use3136"
       transform="translate(-1066.66,0)"
       width="3200"
       height="1000" />
  </g>
  <eggbot
     id="eggbot3019"
     totaldeltay="0"
     totaldeltax="0"
     lastpathnc="0"
     lastpath="0"
     node="0"
     layer="0"
     serialport="COM9" />
</svg>
